<svg width="107" height="111" viewBox="0 0 107 111" fill="none" xmlns="http://www.w3.org/2000/svg">
<path d="M53.3333 110.407C45.9556 110.407 39.0222 108.957 32.5333 106.059C26.0444 103.161 20.4 99.2279 15.6 94.2596C10.8 89.2913 7 83.4489 4.2 76.7325C1.4 70.0161 0 62.8397 0 55.2033C0 47.5668 1.4 40.3904 4.2 33.674C7 26.9576 10.8 21.1152 15.6 16.147C20.4 11.1787 26.0444 7.24543 32.5333 4.34726C39.0222 1.44909 45.9556 0 53.3333 0C60.7111 0 67.6444 1.44909 74.1333 4.34726C80.6222 7.24543 86.2667 11.1787 91.0667 16.147C95.8667 21.1152 99.6667 26.9576 102.467 33.674C105.267 40.3904 106.667 47.5668 106.667 55.2033C106.667 62.8397 105.267 70.0161 102.467 76.7325C99.6667 83.4489 95.8667 89.2913 91.0667 94.2596C86.2667 99.2279 80.6222 103.161 74.1333 106.059C67.6444 108.957 60.7111 110.407 53.3333 110.407ZM53.3333 85.565C57.3333 81.4248 60.8889 77.1465 64 72.7303C66.6667 68.9581 69.1111 64.8178 71.3333 60.3096C73.5555 55.8013 74.6667 51.339 74.6667 46.9228C74.6667 40.8504 72.5778 35.6521 68.4 31.3278C64.2222 27.0036 59.2 24.8415 53.3333 24.8415C47.4667 24.8415 42.4444 27.0036 38.2667 31.3278C34.0889 35.6521 32 40.8504 32 46.9228C32 51.339 33.1111 55.8013 35.3333 60.3096C37.5556 64.8178 40 68.9581 42.6667 72.7303C45.7778 77.1465 49.3333 81.4248 53.3333 85.565ZM53.3333 55.2033C51.1111 55.2033 49.2222 54.3982 47.6667 52.7881C46.1111 51.178 45.3333 49.2229 45.3333 46.9228C45.3333 44.6226 46.1111 42.6675 47.6667 41.0574C49.2222 39.4473 51.1111 38.6423 53.3333 38.6423C55.5556 38.6423 57.4444 39.4473 59 41.0574C60.5556 42.6675 61.3333 44.6226 61.3333 46.9228C61.3333 49.2229 60.5556 51.178 59 52.7881C57.4444 54.3982 55.5556 55.2033 53.3333 55.2033Z" fill="#405046"/>
</svg>
