<svg width="29" height="29" viewBox="0 0 29 29" fill="none" xmlns="http://www.w3.org/2000/svg">
<path d="M14.5 0C6.49263 0 0 6.49263 0 14.5C0 22.5074 6.49263 29 14.5 29C22.5074 29 29 22.5074 29 14.5C29 6.49263 22.5074 0 14.5 0ZM14.5 26.5402C7.85201 26.5402 2.45982 21.148 2.45982 14.5C2.45982 7.85201 7.85201 2.45982 14.5 2.45982C21.148 2.45982 26.5402 7.85201 26.5402 14.5C26.5402 21.148 21.148 26.5402 14.5 26.5402ZM14.6812 9.29877C16.3967 9.29877 17.5618 10.3927 17.6913 11.9981C17.701 12.134 17.8143 12.2376 17.9502 12.2376H19.7854C19.8695 12.2376 19.9375 12.1696 19.9375 12.0855C19.9375 9.27935 17.7237 7.31473 14.6715 7.31473C11.1145 7.31473 9.0625 9.71629 9.0625 13.6844V15.3771C9.0625 19.3161 11.1145 21.6853 14.6715 21.6853C17.7139 21.6853 19.9375 19.7821 19.9375 17.1087C19.9375 17.0246 19.8695 16.9566 19.7854 16.9566H17.947C17.811 16.9566 17.701 17.0602 17.6881 17.1929C17.5521 18.6849 16.3902 19.7109 14.678 19.7109C12.5645 19.7109 11.3734 18.1606 11.3734 15.3868V13.6844C11.3767 10.8685 12.571 9.29877 14.6812 9.29877Z" fill="#F5F1E7"/>
</svg>
