<svg width="73" height="78" viewBox="0 0 73 78" fill="none" xmlns="http://www.w3.org/2000/svg">
<path d="M36.4354 77.793C56.5581 77.793 72.8708 60.3784 72.8708 38.8965C72.8708 17.4146 56.5581 0 36.4354 0C16.3127 0 0 17.4146 0 38.8965C0 60.3784 16.3127 77.793 36.4354 77.793Z" fill="#082D10"/>
<path d="M39.282 58.2237V44.6403H43.5304L44.3417 39.0186H39.2891V35.372C39.2891 33.8374 39.9936 32.3332 42.2566 32.3332H44.548V27.5471C44.548 27.5471 42.463 27.1673 40.4704 27.1673C36.3074 27.1673 33.589 29.8566 33.589 34.7339V39.0186H28.9634V44.6403H33.589V58.2313C24.8786 56.7727 18.2178 48.7275 18.2178 39.0186C18.2178 28.2764 26.373 19.5703 36.4355 19.5703C46.4979 19.5703 54.6532 28.2764 54.6532 39.0186C54.6532 48.7199 47.9923 56.7651 39.282 58.2237Z" fill="#E8E2D4"/>
</svg>
