<svg width="72" height="77" viewBox="0 0 72 77" fill="none" xmlns="http://www.w3.org/2000/svg">
<path d="M36 77C55.8823 77 72 59.763 72 38.5C72 17.237 55.8823 0 36 0C16.1177 0 0 17.237 0 38.5C0 59.763 16.1177 77 36 77Z" fill="#082D10"/>
<path d="M38.8125 57.63V44.1851H43.0102L43.8117 38.6206H38.8195V35.0112C38.8195 33.4923 39.5156 32.0034 41.7516 32.0034H44.0156V27.2661C44.0156 27.2661 41.9555 26.8901 39.9867 26.8901C35.8734 26.8901 33.1875 29.5521 33.1875 34.3796V38.6206H28.6172V44.1851H33.1875V57.6375C24.5812 56.1937 18 48.2306 18 38.6206C18 27.988 26.0578 19.3706 36 19.3706C45.9422 19.3706 54 27.988 54 38.6206C54 48.223 47.4188 56.1862 38.8125 57.63Z" fill="#E8E2D4"/>
</svg>
