<?xml version="1.0" encoding="UTF-8"?><svg id="Layer_1" xmlns="http://www.w3.org/2000/svg" viewBox="0 0 278.17 160.21"><path d="M70.26,63.49c-2.75,0-2.91,1.82-2.91,4.81v19c0,2.99.16,4.65,2.91,4.65v.49h-9.38v-.49c2.75,0,2.91-1.66,2.91-4.65v-9.42h-12.41v9.42c0,2.99.16,4.65,2.91,4.65v.49h-9.38v-.49c2.75,0,2.91-1.66,2.91-4.65v-19c0-2.99-.16-4.81-2.91-4.81v-.48h9.38v.48c-2.75,0-2.91,1.82-2.91,4.81v8.25h12.41v-8.25c0-2.99-.16-4.81-2.91-4.81v-.48h9.38v.48Z" style="fill:#e8e2d4;"/><path d="M88.05,87.79c-1.42,2.26-3.88,5.13-8.17,5.13-5.38,0-8.65-4.73-8.65-10.71,0-6.71,4.32-11.44,9.58-11.44,4.37,0,7.52,3.15,7.19,8.49h-13.26c-.04.48-.08.97-.08,1.5,0,5.62,2.26,9.94,6.75,9.94,2.75,0,4.61-1.74,5.9-3.35l.73.44ZM74.91,78.04h9.62c.28-4-.93-6.22-3.88-6.22-3.11,0-5.09,2.67-5.74,6.22Z" style="fill:#e8e2d4;"/><path d="M89.87,91.63l-.32-5.01h.49c1.5,3.6,3.19,5.25,6.06,5.25,2.47,0,4.41-1.29,4.41-3.68s-1.66-3.35-4.45-4.85l-1.54-.81c-2.14-1.17-4.41-2.51-4.41-5.86,0-3.68,2.83-5.9,6.67-5.9,1.62,0,3.84.36,5.38,1.21v4.12h-.48c-1.01-2.99-2.79-4.28-5.17-4.28s-3.76,1.37-3.76,3.4c0,2.46,2.06,3.56,3.4,4.24l1.5.81c2.91,1.54,5.5,2.79,5.5,6.35,0,3.84-2.99,6.31-7.44,6.31-2.06,0-4.37-.53-5.82-1.29Z" style="fill:#e8e2d4;"/><path d="M105.03,91.63l-.32-5.01h.49c1.5,3.6,3.19,5.25,6.06,5.25,2.47,0,4.41-1.29,4.41-3.68s-1.66-3.35-4.45-4.85l-1.54-.81c-2.14-1.17-4.41-2.51-4.41-5.86,0-3.68,2.83-5.9,6.67-5.9,1.62,0,3.84.36,5.38,1.21v4.12h-.49c-1.01-2.99-2.79-4.28-5.17-4.28s-3.76,1.37-3.76,3.4c0,2.46,2.06,3.56,3.4,4.24l1.5.81c2.91,1.54,5.5,2.79,5.5,6.35,0,3.84-2.99,6.31-7.44,6.31-2.06,0-4.37-.53-5.82-1.29Z" style="fill:#e8e2d4;"/><path d="M136.8,87.79c-1.42,2.26-3.88,5.13-8.17,5.13-5.38,0-8.65-4.73-8.65-10.71,0-6.71,4.33-11.44,9.58-11.44,4.37,0,7.52,3.15,7.19,8.49h-13.26c-.04.48-.08.97-.08,1.5,0,5.62,2.26,9.94,6.75,9.94,2.75,0,4.61-1.74,5.9-3.35l.73.44ZM123.66,78.04h9.62c.28-4-.93-6.22-3.88-6.22-3.11,0-5.09,2.67-5.74,6.22Z" style="fill:#e8e2d4;"/><path d="M138.18,92.43v-.49c1.66,0,1.78-1.37,1.78-3.96v-21.75c0-2.59-.69-3.44-2.06-3.8v-.49l5.01-1.13h.32v27.16c0,2.59.12,3.96,1.78,3.96v.49h-6.83Z" style="fill:#e8e2d4;"/><path d="M158.83,88.07c4.32,0,6.63,1.66,6.63,5.13,0,5.54-6.1,8.93-11.36,8.93-4.77,0-7.6-2.55-7.6-5.86,0-1.86.97-3.15,2.59-4.37l.49-.36h.97c-1.01.97-1.37,2.18-1.37,3.52,0,3.36,2.63,5.34,6.87,5.34,3.84,0,7.15-2.14,7.15-5.42,0-2.38-1.54-3.88-4.61-3.88h-8.17c-2.22,0-3.19-1.17-3.19-2.59,0-1.66,1.17-2.79,3.6-4.16-2.38-1.09-3.88-3.35-3.88-6.35,0-4.37,3.23-7.24,7.68-7.24,1.42,0,2.75.28,3.84.81l7.03-.61-.73,2.22-4.57-.4c1.25,1.25,1.98,2.95,1.98,5.09,0,4.37-3.15,7.23-7.64,7.23-.97,0-1.86-.12-2.71-.36-1.46.97-1.86,1.54-1.86,2.18s.44,1.13,1.46,1.13h7.4ZM150.18,77.92c0,3.8,1.46,6.14,4.41,6.14s4.37-2.34,4.37-6.14-1.46-6.1-4.37-6.1-4.41,2.3-4.41,6.1Z" style="fill:#e8e2d4;"/><path d="M183.29,90.57c-.65.93-1.98,2.34-3.8,2.34s-2.43-1.7-2.51-3.15c-1.7,1.98-4.2,3.15-6.43,3.15-2.75,0-4.69-1.7-4.69-4.33,0-3.03,2.18-5.29,7.11-6.71l3.84-1.09v-2.95c0-1.17,0-5.09-3.96-5.09-2.63,0-4.49,1.74-5.66,4l-.81-.32c.65-2.18,3.15-5.66,7.84-5.66,3.92,0,5.82,2.71,5.82,6.51v10.75c0,1.33,0,2.75,1.25,2.75.61,0,1.09-.4,1.42-.73l.57.53ZM176.82,88.88v-6.99l-2.87.93c-2.75.85-4.81,1.9-4.81,4.77,0,2.18,1.37,3.31,3.23,3.31,1.66,0,3.35-1.05,4.45-2.02Z" style="fill:#e8e2d4;"/><path d="M201.03,90.57c-.65.93-1.98,2.34-3.8,2.34s-2.43-1.7-2.51-3.15c-1.7,1.98-4.2,3.15-6.43,3.15-2.75,0-4.69-1.7-4.69-4.33,0-3.03,2.18-5.29,7.11-6.71l3.84-1.09v-2.95c0-1.17,0-5.09-3.96-5.09-2.63,0-4.49,1.74-5.66,4l-.81-.32c.65-2.18,3.15-5.66,7.84-5.66,3.92,0,5.82,2.71,5.82,6.51v10.75c0,1.33,0,2.75,1.25,2.75.61,0,1.09-.4,1.42-.73l.57.53ZM194.57,88.88v-6.99l-2.87.93c-2.75.85-4.81,1.9-4.81,4.77,0,2.18,1.37,3.31,3.23,3.31,1.66,0,3.35-1.05,4.45-2.02Z" style="fill:#e8e2d4;"/><path d="M213.77,71.09l-.81,3.48h-.4c-.85-.61-1.78-.85-2.51-.85-1.21,0-2.26.65-3.35,2.26v12c0,2.59.12,3.96,1.78,3.96v.49h-6.83v-.49c1.66,0,1.78-1.37,1.78-3.96v-11.4c0-2.59-.69-3.44-2.06-3.8v-.49l5.01-1.46h.32v3.8c1.7-2.34,3.52-3.88,5.5-3.88.44,0,1.01.08,1.58.32Z" style="fill:#e8e2d4;"/><path d="M231.51,87.38c0,2.59.65,3.56,2.06,3.96v.49l-4.32,1.09h-.32l-.57-3.48c-1.66,2.02-3.88,3.48-6.67,3.48-4.77,0-8.08-4.49-8.08-10.67,0-7.07,4.45-11.48,9.82-11.48,1.86,0,3.48.53,4.81,1.33v-5.86c0-2.59-.69-3.44-2.06-3.8v-.49l5.01-1.13h.32v26.56ZM228.24,88.31v-10.75c0-3.6-1.82-5.74-4.85-5.74-4.24,0-6.27,4.2-6.27,9.46s2.06,9.66,6.14,9.66c2.06,0,3.72-1.17,4.97-2.63Z" style="fill:#e8e2d4;"/><path d="M139.13,158.71c-2.54-11.39-9.98-21.44-19.82-26.79-10.3-5.6-22.39-5.99-33.95-5.4-11.57.59-23.28,2.04-34.64-.3s-22.67-9.33-26.91-20.72" style="fill:none; stroke:#e8e2d4; stroke-linecap:round; stroke-miterlimit:10; stroke-width:3px;"/><path d="M139.13,158.71c2.54-11.39,9.98-21.44,19.82-26.79,10.3-5.6,22.39-5.99,33.95-5.4,11.57.59,23.28,2.04,34.64-.3,11.37-2.34,22.67-9.33,26.91-20.72" style="fill:none; stroke:#e8e2d4; stroke-linecap:round; stroke-miterlimit:10; stroke-width:3px;"/><path d="M149.49,140.24c9.82-5.76,22.3-6.11,32.4-.91-4.42,3.86-10.37,6.94-16.1,7.05-5.73.11-11.75-2.45-16.3-6.14Z" style="fill:none; stroke:#e8e2d4; stroke-linecap:round; stroke-miterlimit:10; stroke-width:3px;"/><path d="M196.8,108.37c-5.27,10.49-15.56,17.97-26.71,19.41,1.72-5.79,5.12-11.79,9.88-15.18,4.75-3.39,11.11-4.71,16.83-4.23Z" style="fill:none; stroke:#e8e2d4; stroke-linecap:round; stroke-miterlimit:10; stroke-width:3px;"/><path d="M199.79,127.56c11.22-.4,22.49,5.31,29.23,14.81-5.6,1.3-12.22,1.18-17.37-1.49s-9.4-7.84-11.86-13.32Z" style="fill:none; stroke:#e8e2d4; stroke-linecap:round; stroke-miterlimit:10; stroke-width:3px;"/><path d="M244.05,100.46c-2.46,11.5-10.53,21.38-20.94,25.63.21-6.04,1.99-12.72,5.73-17.22,3.74-4.5,9.56-7.4,15.21-8.41Z" style="fill:none; stroke:#e8e2d4; stroke-linecap:round; stroke-miterlimit:10; stroke-width:3px;"/><path d="M254.46,54.71c1.43,4.75.93,11.45,2.49,16.32,2.61,7.14,5.52,12.74,11.95,14.09,2.58.54,5.69.69,7.14-1.72,1.36-2.25.38-5.63-1.72-7.01s-4.89-.99-6.93.49-4.13,3.63-5.7,5.71c-6.02,7.75-5.18,17.49-7.33,23.17" style="fill:none; stroke:#e8e2d4; stroke-linecap:round; stroke-miterlimit:10; stroke-width:3px;"/><path d="M23.8,54.71c-1.43,4.75-1.03,11.2-2.58,16.06-2.61,7.14-5.52,12.74-11.95,14.09-2.58.54-5.69.69-7.14-1.72-1.36-2.25-.38-5.63,1.72-7.01,2.1-1.39,4.89-.99,6.93.49,2.04,1.48,4.13,3.63,5.7,5.71,6.02,7.75,5.18,17.49,7.33,23.17" style="fill:none; stroke:#e8e2d4; stroke-linecap:round; stroke-miterlimit:10; stroke-width:3px;"/><path d="M139.13,1.5c2.54,11.39,9.98,21.44,19.82,26.79,10.3,5.6,22.39,5.99,33.95,5.4,11.57-.59,23.28-2.04,34.64.3,11.37,2.34,22.67,9.33,26.91,20.72" style="fill:none; stroke:#e8e2d4; stroke-linecap:round; stroke-miterlimit:10; stroke-width:3px;"/><path d="M139.13,1.5c-2.54,11.39-9.98,21.44-19.82,26.79-10.3,5.6-22.39,5.99-33.95,5.4-11.57-.59-23.28-2.04-34.64.3-11.37,2.34-22.67,9.33-26.91,20.72" style="fill:none; stroke:#e8e2d4; stroke-linecap:round; stroke-miterlimit:10; stroke-width:3px;"/><path d="M128.61,20.27c-9.82,5.76-22.3,6.11-32.4.91,4.42-3.86,10.37-6.94,16.1-7.05,5.73-.11,11.75,2.45,16.3,6.14Z" style="fill:none; stroke:#e8e2d4; stroke-linecap:round; stroke-miterlimit:10; stroke-width:3px;"/><path d="M81.47,51.84c5.27-10.49,15.56-17.97,26.71-19.41-1.72,5.79-5.12,11.79-9.88,15.18-4.75,3.39-11.11,4.71-16.83,4.23Z" style="fill:none; stroke:#e8e2d4; stroke-linecap:round; stroke-miterlimit:10; stroke-width:3px;"/><path d="M78.47,32.65c-11.22.4-22.49-5.31-29.23-14.81,5.6-1.3,12.22-1.18,17.37,1.49s9.4,7.84,11.86,13.32Z" style="fill:none; stroke:#e8e2d4; stroke-linecap:round; stroke-miterlimit:10; stroke-width:3px;"/><path d="M34.22,59.75c2.46-11.5,10.53-21.38,20.94-25.63-.21,6.04-1.99,12.72-5.73,17.22-3.74,4.5-9.56,7.4-15.21,8.41Z" style="fill:none; stroke:#e8e2d4; stroke-linecap:round; stroke-miterlimit:10; stroke-width:3px;"/></svg>