<svg width="73" height="78" viewBox="0 0 73 78" fill="none" xmlns="http://www.w3.org/2000/svg">
<path d="M36.2765 77.4537C56.3115 77.4537 72.553 60.1151 72.553 38.7269C72.553 17.3386 56.3115 0 36.2765 0C16.2415 0 0 17.3386 0 38.7269C0 60.1151 16.2415 77.4537 36.2765 77.4537Z" fill="#082D10"/>
<path d="M36.2766 19.6775C42.0883 19.6775 42.7768 19.7011 45.0719 19.8128C47.1941 19.9162 48.3466 20.2948 49.1136 20.6129C50.1296 21.0345 50.8545 21.5379 51.6162 22.351C52.378 23.1643 52.8496 23.9382 53.2444 25.0228C53.5424 25.8416 53.897 27.072 53.9939 29.3373C54.0986 31.7876 54.1207 32.5224 54.1207 38.7266C54.1207 44.9311 54.0986 45.6659 53.9939 48.1162C53.897 50.3817 53.5424 51.6118 53.2444 52.4307C52.8496 53.5153 52.378 54.2894 51.6163 55.1025C50.8545 55.9156 50.1296 56.419 49.1136 56.8405C48.3466 57.1589 47.1941 57.5372 45.0719 57.6406C42.7772 57.7524 42.0889 57.7762 36.2766 57.7762C30.4644 57.7762 29.7763 57.7524 27.4814 57.6406C25.3592 57.5372 24.2067 57.1589 23.4397 56.8405C22.4237 56.419 21.6988 55.9156 20.9371 55.1025C20.1755 54.2894 19.7037 53.5153 19.3089 52.4307C19.0108 51.6118 18.6562 50.3817 18.5594 48.1162C18.4547 45.6659 18.4326 44.9311 18.4326 38.7266C18.4326 32.5224 18.4547 31.7876 18.5594 29.3373C18.6562 27.072 19.0108 25.8416 19.3089 25.0228C19.7037 23.9382 20.1753 23.1643 20.9371 22.3512C21.6988 21.5379 22.4237 21.0345 23.4397 20.6129C24.2067 20.2948 25.3592 19.9162 27.4814 19.8128C29.7764 19.7011 30.465 19.6775 36.2766 19.6775ZM36.2766 15.4907C30.3654 15.4907 29.6241 15.5174 27.3026 15.6305C24.9859 15.7434 23.4036 16.1361 22.0191 16.7106C20.5878 17.3043 19.374 18.0988 18.164 19.3907C16.9538 20.6824 16.2096 21.9782 15.6535 23.5062C15.1153 24.9842 14.7474 26.6733 14.6417 29.1466C14.5358 31.6249 14.5107 32.4163 14.5107 38.7266C14.5107 45.0374 14.5358 45.8286 14.6417 48.3069C14.7474 50.7802 15.1153 52.4693 15.6535 53.9473C16.2096 55.4752 16.9538 56.771 18.164 58.063C19.374 59.3547 20.5878 60.1492 22.0191 60.7429C23.4036 61.3174 24.9859 61.7101 27.3026 61.823C29.6241 61.936 30.3654 61.9628 36.2766 61.9628C42.1879 61.9628 42.9292 61.936 45.2507 61.823C47.5673 61.7101 49.1497 61.3174 50.5342 60.7429C51.9655 60.1492 53.1793 59.3547 54.3893 58.063C55.5993 56.771 56.3437 55.4752 56.8998 53.9473C57.438 52.4693 57.8058 50.7802 57.9116 48.3069C58.0175 45.8286 58.0425 45.0374 58.0425 38.7266C58.0425 32.4163 58.0175 31.6249 57.9116 29.1466C57.8058 26.6733 57.438 24.9842 56.8998 23.5062C56.3437 21.9782 55.5993 20.6824 54.3893 19.3907C53.1793 18.0988 51.9655 17.3043 50.5342 16.7106C49.1497 16.1361 47.5673 15.7434 45.2507 15.6305C42.9292 15.5174 42.1879 15.4907 36.2766 15.4907Z" fill="#E8E2D4"/>
<path d="M36.2873 26.8057C30.1143 26.8057 25.1104 32.1476 25.1104 38.7376C25.1104 45.3276 30.1143 50.6695 36.2873 50.6695C42.4603 50.6695 47.4645 45.3276 47.4645 38.7376C47.4645 32.1476 42.4603 26.8057 36.2873 26.8057ZM36.2873 46.483C32.2804 46.483 29.032 43.0152 29.032 38.7376C29.032 34.46 32.2804 30.9922 36.2873 30.9922C40.2944 30.9922 43.5426 34.46 43.5426 38.7376C43.5426 43.0152 40.2944 46.483 36.2873 46.483Z" fill="#E8E2D4"/>
<path d="M50.5168 26.3271C50.5168 27.8669 49.3474 29.1154 47.9049 29.1154C46.4623 29.1154 45.293 27.8669 45.293 26.3271C45.293 24.7871 46.4623 23.5386 47.9049 23.5386C49.3474 23.5386 50.5168 24.7871 50.5168 26.3271Z" fill="#E8E2D4"/>
</svg>
