<svg width="72" height="77" viewBox="0 0 72 77" fill="none" xmlns="http://www.w3.org/2000/svg">
<path d="M36 77C55.8823 77 72 59.763 72 38.5C72 17.237 55.8823 0 36 0C16.1177 0 0 17.237 0 38.5C0 59.763 16.1177 77 36 77Z" fill="#082D10"/>
<path d="M36.0004 19.5621C41.7678 19.5621 42.4511 19.5856 44.7286 19.6967C46.8346 19.7995 47.9783 20.1758 48.7395 20.4921C49.7477 20.9112 50.4672 21.4117 51.223 22.22C51.979 23.0285 52.447 23.7979 52.8388 24.8761C53.1346 25.6902 53.4865 26.9133 53.5826 29.1654C53.6865 31.6013 53.7084 32.3318 53.7084 38.4997C53.7084 44.6678 53.6865 45.3983 53.5826 47.8342C53.4865 50.0865 53.1346 51.3094 52.8388 52.1235C52.447 53.2017 51.979 53.9713 51.2232 54.7796C50.4672 55.5879 49.7477 56.0884 48.7395 56.5075C47.9783 56.824 46.8346 57.2001 44.7286 57.3029C42.4514 57.414 41.7683 57.4377 36.0004 57.4377C30.2325 57.4377 29.5495 57.414 27.2722 57.3029C25.1662 57.2001 24.0225 56.824 23.2613 56.5075C22.2531 56.0884 21.5336 55.5879 20.7778 54.7796C20.022 53.9713 19.5538 53.2017 19.1619 52.1235C18.8662 51.3094 18.5143 50.0865 18.4182 47.8342C18.3143 45.3983 18.2924 44.6678 18.2924 38.4997C18.2924 32.3318 18.3143 31.6013 18.4182 29.1654C18.5143 26.9133 18.8662 25.6902 19.1619 24.8761C19.5538 23.7979 20.0218 23.0285 20.7778 22.2202C21.5336 21.4117 22.2531 20.9112 23.2613 20.4921C24.0225 20.1758 25.1662 19.7995 27.2722 19.6967C29.5497 19.5856 30.233 19.5621 36.0004 19.5621ZM36.0004 15.3999C30.1342 15.3999 29.3985 15.4265 27.0947 15.5389C24.7958 15.6511 23.2254 16.0415 21.8515 16.6127C20.4311 17.2029 19.2266 17.9927 18.0258 19.277C16.8248 20.5612 16.0863 21.8494 15.5344 23.3684C15.0003 24.8378 14.6353 26.517 14.5304 28.9758C14.4252 31.4396 14.4004 32.2263 14.4004 38.4997C14.4004 44.7735 14.4252 45.56 14.5304 48.0238C14.6353 50.4826 15.0003 52.1618 15.5344 53.6312C16.0863 55.1502 16.8248 56.4384 18.0258 57.7228C19.2266 59.0069 20.4311 59.7968 21.8515 60.387C23.2254 60.9581 24.7958 61.3485 27.0947 61.4607C29.3985 61.5731 30.1342 61.5997 36.0004 61.5997C41.8666 61.5997 42.6023 61.5731 44.9061 61.4607C47.205 61.3485 48.7754 60.9581 50.1493 60.387C51.5697 59.7968 52.7742 59.0069 53.975 57.7228C55.1758 56.4384 55.9145 55.1502 56.4664 53.6312C57.0005 52.1618 57.3655 50.4826 57.4704 48.0238C57.5756 45.56 57.6004 44.7735 57.6004 38.4997C57.6004 32.2263 57.5756 31.4396 57.4704 28.9758C57.3655 26.517 57.0005 24.8378 56.4664 23.3684C55.9145 21.8494 55.1758 20.5612 53.975 19.277C52.7742 17.9927 51.5697 17.2029 50.1493 16.6127C48.7754 16.0415 47.205 15.6511 44.9061 15.5389C42.6023 15.4265 41.8666 15.3999 36.0004 15.3999Z" fill="#E8E2D4"/>
<path d="M36.0107 26.6484C29.8848 26.6484 24.9189 31.9591 24.9189 38.5105C24.9189 45.0618 29.8848 50.3725 36.0107 50.3725C42.1367 50.3725 47.1027 45.0618 47.1027 38.5105C47.1027 31.9591 42.1367 26.6484 36.0107 26.6484ZM36.0107 46.2105C32.0343 46.2105 28.8107 42.763 28.8107 38.5105C28.8107 34.258 32.0343 30.8105 36.0107 30.8105C39.9873 30.8105 43.2107 34.258 43.2107 38.5105C43.2107 42.763 39.9873 46.2105 36.0107 46.2105Z" fill="#E8E2D4"/>
<path d="M50.1313 26.1731C50.1313 27.7038 48.9708 28.9451 47.5393 28.9451C46.1077 28.9451 44.9473 27.7038 44.9473 26.1731C44.9473 24.6421 46.1077 23.4009 47.5393 23.4009C48.9708 23.4009 50.1313 24.6421 50.1313 26.1731Z" fill="#E8E2D4"/>
</svg>
